<svg version="1.2" xmlns="http://www.w3.org/2000/svg" viewBox="0 0 1080 1080" width="1080" height="1080">
	<title>mindify_blanc_sansfond (1)-svg</title>
	<style>
		.s0 { fill: #ffffff } 
	</style>
	<path class="s0" d="m106.3 1038.5v-600.8c0-107.2 87-194.3 194.3-194.3h22.8c9.5 0 17.3 7.7 17.3 17.2v600.8c0 107.2-87.1 194.3-194.4 194.3h-22.8c-9.5 0-17.2-7.7-17.2-17.2z"/>
	<g>
		<path class="s0" d="m660 489.1v566c0 13.7-11.1 24.9-24.9 24.9-115.6 0-209.5-93.9-209.5-209.5v-597c0-3.2 2.7-5.9 5.9-5.9h7.1c122.2 0 221.4 99.3 221.4 221.4z"/>
		<path class="s0" d="m425.7 661.5v-647.9c0-7.5 6.1-13.6 13.5-13.6h11.4c115.6 0 209.5 93.9 209.5 209.5v531c0 39.7-32.2 71.9-71.9 71.9h-11.6c-83.3 0-150.9-67.6-150.9-150.9z"/>
	</g>
	<path class="s0" d="m745 857.8v-600.8c0-107.2 87.1-194.3 194.4-194.3h22.8c9.5 0 17.2 7.7 17.2 17.2v600.8c0 107.3-87 194.4-194.3 194.4h-22.9c-9.5 0-17.2-7.7-17.2-17.3z"/>
</svg>