<svg width="57" height="97" viewBox="0 0 57 97" fill="currentColor" xmlns="http://www.w3.org/2000/svg">
<path d="M51.4463 96.0135C47.7872 96.0135 44.0401 95.0042 40.5165 93.0195C34.0183 89.3685 28.9702 82.9402 27.0051 75.8277C25.8328 71.5941 25.4805 67.0625 25.9277 62.2531C17.8507 64.3868 8.56071 62.7272 3.77682 55.818C0.781805 51.4896 -0.214273 45.4948 0.815686 37.9894C2.78752 23.6562 10.2615 10.0815 21.32 0.754028L23.0682 2.8268C12.5111 11.7275 5.38274 24.679 3.499 38.362C2.56391 45.1696 3.40414 50.5277 5.99936 54.2803C10.2954 60.4919 18.9823 61.6705 26.2868 59.3404C27.2897 52.973 29.6478 46.1586 33.3475 38.931C35.7259 34.291 38.8564 29.2377 44.0265 27.0024C46.0797 26.115 48.4716 26.0134 50.2808 26.745C51.5547 27.2598 52.4898 28.1607 52.9845 29.3529C54.0619 31.954 52.5102 34.6771 51.6767 36.1402C46.9064 44.4991 41.4991 53.9823 32.4869 59.4758C31.3147 60.1938 30.0543 60.8103 28.7398 61.3251C28.1435 66.2428 28.4281 70.8422 29.6003 75.0961C31.3486 81.4364 36.0376 87.3905 41.8311 90.6487C45.0836 92.4776 50.1656 94.3133 55.9117 92.674L56.6503 95.282C54.9563 95.7629 53.2081 96 51.4328 96L51.4463 96.0135ZM47.6111 28.9736C46.7844 28.9736 45.8967 29.1497 45.1107 29.4884C40.7266 31.385 37.9281 35.9505 35.7665 40.1706C32.5073 46.5379 30.3321 52.5463 29.248 58.1685C29.8782 57.8637 30.4948 57.5318 31.0843 57.1728C39.5001 52.0382 44.7245 42.8801 49.3322 34.8058C50.1656 33.3359 51.0194 31.6695 50.4909 30.396C50.2741 29.8812 49.881 29.5087 49.2712 29.2648C48.7969 29.0752 48.2209 28.9803 47.6111 28.9803V28.9736Z" fill="#16a34a"/>
</svg>
