<svg width="74" height="62" viewBox="0 0 74 62" fill="none" xmlns="http://www.w3.org/2000/svg">
<path d="M33.8215 61.1263C33.8215 61.1263 33.7605 61.1263 33.7267 61.1263C32.9813 61.0721 32.4189 60.4286 32.4663 59.6835C33.4488 45.4721 32.1343 31.2946 28.5565 17.5507C27.4859 13.4322 25.7783 8.46703 22.0515 6.57714C19.6664 5.37141 16.4748 5.51368 13.2833 6.97682C10.7084 8.15545 8.4791 9.95726 6.83252 12.1723C1.81824 18.9257 2.49585 28.3819 3.15313 37.5333L3.20733 38.2513C3.71553 45.3908 3.93237 52.6388 3.84428 59.7919C3.8375 60.537 3.23444 61.1263 2.47552 61.133C1.73016 61.1263 1.12708 60.5099 1.13386 59.7648C1.22195 52.6862 1.01189 45.5128 0.503691 38.4545L0.449481 37.7365C-0.207795 28.5445 -0.959943 18.1332 4.6574 10.5669C6.57502 7.9861 9.17025 5.89302 12.1585 4.52471C16.1021 2.71612 20.161 2.5874 23.2848 4.17247C27.9806 6.55683 29.9727 12.2129 31.1924 16.8801C34.8447 30.9085 36.1863 45.3773 35.1835 59.8799C35.1361 60.5979 34.5398 61.1398 33.8351 61.1398L33.8215 61.1263Z" fill="#16a34a"/>
<path d="M4.22374 61.8714C3.70876 61.8714 3.22089 61.5802 2.99051 61.0857C2.67881 60.4083 2.97695 59.6022 3.65456 59.2906C8.19451 57.2043 13.1071 57.482 17.8639 57.753C20.6692 57.9156 23.5694 58.0781 26.2866 57.7327C26.5847 57.692 26.8896 57.6514 27.1945 57.6108C29.7559 57.2518 32.6628 56.8453 34.9328 58.7623C35.502 59.2432 35.5765 60.0967 35.0954 60.6725C34.6143 61.2415 33.7538 61.316 33.1846 60.835C31.8429 59.7038 29.7694 59.9951 27.574 60.2999C27.2555 60.3473 26.9371 60.388 26.6321 60.4286C23.6642 60.8012 20.6421 60.6318 17.7149 60.4625C13.0868 60.1983 8.72305 59.9477 4.79294 61.7563C4.60998 61.8376 4.42025 61.8782 4.23052 61.8782L4.22374 61.8714Z" fill="#16a34a"/>
<path d="M44.8055 61.5801C44.1279 61.5801 43.5384 61.0721 43.4638 60.3812L39.6489 26.763C39.0933 21.8655 38.4631 16.3111 39.8658 11.0885C41.2074 6.08945 45.1172 0.738164 50.8226 0.0675611C54.8341 -0.399829 59.0826 1.57812 62.1861 5.37143C64.8762 8.65671 66.3804 12.7345 67.6137 16.6497C71.9029 30.3463 73.8002 44.5983 73.2513 59.0061C73.2242 59.7512 72.6008 60.3609 71.8419 60.3067C71.0966 60.2796 70.5138 59.6496 70.5409 58.9045C71.083 44.8015 69.2264 30.8611 65.0252 17.4626C63.8801 13.8048 62.4842 10.0182 60.0923 7.08517C57.6122 4.0573 54.1903 2.39772 51.1411 2.75673C46.7164 3.27831 43.5519 7.8032 42.4813 11.793C41.2142 16.521 41.8105 21.7978 42.339 26.4581L46.1539 60.0763C46.2352 60.8215 45.7067 61.4921 44.9613 61.5734C44.9071 61.5734 44.8597 61.5801 44.8055 61.5801Z" fill="#16a34a"/>
<path d="M45.9506 60.5437C45.3476 60.5437 44.7987 60.1373 44.6361 59.5277C44.4464 58.8029 44.8868 58.0645 45.6118 57.8749C54.0751 55.6937 63.1076 55.2331 71.7267 56.5405C72.4653 56.6556 72.9735 57.3465 72.8651 58.0849C72.7499 58.8232 72.0588 59.3313 71.3202 59.2229C63.0534 57.9697 54.4004 58.41 46.2827 60.5031C46.1675 60.5302 46.0523 60.5437 45.9439 60.5437H45.9506Z" fill="#16a34a"/>
<path d="M32.3782 38.9625C32.3782 37.5807 32.385 36.1921 32.3918 34.8102C32.3918 34.2818 32.202 33.9025 31.9242 33.6519C31.8768 32.8323 31.8294 32.0194 31.7752 31.1998C31.809 31.0982 31.8361 31.0169 31.8429 30.9966C32.1072 30.1702 32.3714 29.3573 32.3511 28.47C32.3376 27.8739 32.2088 27.2778 31.9852 26.7291C33.5573 27.0271 34.1671 24.3312 32.4934 23.6606C25.7038 20.924 21.7669 29.2761 20.5405 34.8305C18.9481 42.0446 19.6189 49.5093 20.3304 56.7979C20.4727 58.2339 22.0583 58.6268 22.8579 57.9833C23.4406 58.5997 24.5587 58.6945 25.1008 57.9968C25.5615 58.1594 26.0968 58.1594 26.727 57.8952C26.8083 57.8613 26.8557 57.8072 26.9303 57.7665C27.0794 59.7106 29.6949 59.6157 29.8846 57.6784C29.905 57.4617 29.9253 57.2449 29.9456 57.0349C30.0337 57.3872 30.1354 57.7327 30.2641 58.0713C30.7587 59.3584 32.7916 59.7445 33.1371 58.0713C34.4517 51.6701 32.7238 45.357 32.3782 38.9761V38.9625Z" fill="#16a34a"/>
<path d="M72.1197 55.2602C71.6115 53.0452 71.144 50.8234 70.6968 48.5948C70.7578 46.6711 70.7171 44.7473 70.5748 42.8236C71.1033 42.6475 71.5099 42.1733 71.4625 41.4011C71.3473 39.5519 71.1372 37.7094 70.8323 35.8805C70.7442 35.3589 70.4257 35.0541 70.0327 34.8983C69.8498 34.1396 69.6736 33.3809 69.4771 32.6223C69.3077 30.6172 68.9757 28.6325 68.5013 26.6817C68.725 26.343 68.9147 25.9772 69.0095 25.5437C69.328 24.0738 68.664 22.3871 68.3319 20.9782C68.1354 20.1653 67.3562 19.7657 66.6108 19.8808C66.3737 19.6505 66.0687 19.4812 65.6486 19.4744C59.0216 19.4202 57.6325 27.9078 57.3276 33.2658C56.9007 40.7034 57.9171 48.3103 58.4321 55.7276C58.5134 56.8724 59.5231 57.3465 60.343 57.1772C60.8986 58.0646 62.2132 57.9494 62.7824 57.123C62.9043 57.2246 63.0195 57.333 63.1618 57.421C63.9207 57.8613 65.1133 57.5227 65.3301 56.5472C65.3572 56.5947 65.364 56.6488 65.3911 56.6962C65.7909 57.3872 66.7463 57.7326 67.424 57.2585C67.5459 57.1704 67.6408 57.0688 67.756 56.974C67.8847 56.9943 68.0067 57.0078 68.1354 57.0281C68.1896 57.0349 68.2167 57.0281 68.2574 57.0281C68.7927 57.8274 70.1005 58.1052 70.8255 57.0485C70.7781 57.1162 70.7374 57.184 70.69 57.2517C71.6996 57.3872 72.323 56.1476 72.1265 55.267L72.1197 55.2602Z" fill="#16a34a"/>
</svg>
