<?xml version="1.0" encoding="UTF-8"?>
<svg id="Calque_2" data-name="Calque 2" xmlns="http://www.w3.org/2000/svg" viewBox="0 0 1080 1080">
  <defs>
    <style>
      .cls-1 {
        fill: #13a34a;
      }

      .cls-1, .cls-2 {
        stroke-width: 0px;
      }

      .cls-2 {
        fill: #fff;
      }
    </style>
  </defs>
  <rect class="cls-1" x="-.99" y="-.99" width="1081.97" height="1081.97"/>
  <g>
    <path class="cls-2" d="M263.1,856.2v-381.08c0-68.02,55.22-123.27,123.27-123.27h14.47c6.03,0,10.93,4.9,10.93,10.93v381.08c0,68.02-55.22,123.27-123.27,123.27h-14.49c-6.03,0-10.93-4.89-10.93-10.93h.02Z"/>
    <g>
      <path class="cls-2" d="M614.34,507.7v359.02c0,8.72-7.08,15.8-15.8,15.8h0c-73.34,0-132.88-59.55-132.88-132.88v-378.68c0-2.04,1.67-3.71,3.71-3.71h4.51c77.51,0,140.44,62.93,140.44,140.44l.02.02Z"/>
      <path class="cls-2" d="M465.68,617.06V206.1c0-4.75,3.86-8.61,8.61-8.61h7.18c73.34,0,132.88,59.55,132.88,132.88v336.81c0,25.16-20.43,45.59-45.59,45.59h-7.37c-52.82,0-95.7-42.88-95.7-95.7h-.02Z"/>
    </g>
    <path class="cls-2" d="M668.25,741.6v-381.08c0-68.02,55.22-123.27,123.27-123.27h14.47c6.03,0,10.93,4.9,10.93,10.93v381.08c0,68.02-55.22,123.27-123.27,123.27h-14.49c-6.03,0-10.93-4.89-10.93-10.93h.02Z"/>
  </g>
</svg>