<?xml version="1.0" encoding="UTF-8"?>
<svg id="Calque_4" data-name="Calque 4" xmlns="http://www.w3.org/2000/svg" viewBox="0 0 1080 1080">
  <defs>
    <style>
      .cls-1 {
        fill: #fff;
        stroke-width: 0px;
      }
    </style>
  </defs>
  <path class="cls-1" d="M278.93,537.15h223.86c39.96,0,72.41,32.44,72.41,72.41v8.5c0,3.54-2.88,6.42-6.42,6.42h-223.86c-39.96,0-72.41-32.44-72.41-72.41v-8.51c0-3.54,2.87-6.42,6.42-6.42Z" transform="translate(-156.96 1004.67) rotate(-90)"/>
  <g>
    <path class="cls-1" d="M474.02,546.19h210.9c5.12,0,9.28,4.16,9.28,9.28h0c0,43.08-34.98,78.06-78.06,78.06h-222.45c-1.2,0-2.18-.98-2.18-2.18v-2.65c0-45.53,36.97-82.5,82.5-82.5Z" transform="translate(1132.71 47) rotate(90)"/>
    <path class="cls-1" d="M447.74,446.48h241.41c2.79,0,5.06,2.27,5.06,5.06v4.22c0,43.08-34.98,78.06-78.06,78.06h-197.85c-14.78,0-26.78-12-26.78-26.78v-4.33c0-31.03,25.19-56.22,56.22-56.22Z" transform="translate(52.71 1033) rotate(-90)"/>
  </g>
  <path class="cls-1" d="M516.93,469.83h223.86c39.96,0,72.41,32.44,72.41,72.41v8.5c0,3.54-2.88,6.42-6.42,6.42h-223.86c-39.96,0-72.41-32.44-72.41-72.41v-8.51c0-3.54,2.87-6.42,6.42-6.42Z" transform="translate(148.36 1175.35) rotate(-90)"/>
</svg>