<svg width="74" height="71" viewBox="0 0 74 71" fill="currentColor" xmlns="http://www.w3.org/2000/svg">
<path d="M31.9013 70.0317C31.4948 70.0317 31.0814 69.9978 30.6681 69.9301C27.3343 69.3611 24.5561 66.6922 22.4149 61.998C18.1527 52.6637 17.4277 42.0086 19.9348 32.1799C18.8168 31.9699 17.6445 31.9021 16.4113 31.997C6.38274 33.2298 1.98506 44.2778 2.96081 54.0456L0.263954 54.3165C-0.847318 43.2753 4.34313 30.7506 16.1402 29.301C17.7462 29.1791 19.2572 29.2807 20.6802 29.5652C22.4352 24.0649 25.2202 18.8965 28.9944 14.4529C34.6727 7.53012 40.9948 6.1686 48.2587 10.3548C48.9499 7.9501 50.1967 5.78927 51.911 4.10937C54.6621 1.41341 58.6464 -0.0429443 62.8408 0.0789836C67.0351 0.207685 70.9178 1.92822 73.4995 4.78675L71.487 6.60211C69.4 4.28549 66.2152 2.89687 62.7594 2.78849C59.3036 2.68688 56.0376 3.86552 53.8083 6.04667C52.243 7.57754 51.1521 9.62999 50.6574 11.9127C52.6496 13.3081 54.8111 15.0896 55.8818 17.684C56.9863 20.3596 56.4916 24.1462 53.7676 25.8599L52.88 26.4154L52.1211 25.6974C49.3158 23.0556 47.6895 19.1336 47.6488 14.9474C47.6488 14.3581 47.6692 13.7755 47.7234 13.1998C41.2794 9.11519 36.1025 10.0771 31.0814 16.1938C27.5511 20.3596 24.9356 25.1893 23.2822 30.3306C31.8133 33.6024 36.6513 43.5259 38.569 48.3759C40.3375 52.5215 41.8757 56.999 41.0693 61.4696C40.2833 65.7845 36.4413 70.0452 31.9013 70.0452V70.0317ZM22.5368 32.9318C20.1991 42.1509 20.8903 52.1286 24.8813 60.8668C26.6296 64.6939 28.7301 66.8412 31.1221 67.2544C34.5304 67.8302 37.7694 64.4162 38.3996 60.9684C39.1178 57.0193 37.5661 52.9211 36.0618 49.392C34.3068 44.9552 29.943 35.919 22.53 32.9318H22.5368ZM50.3593 15.049C50.4135 17.9888 51.4028 20.739 53.1103 22.7914C53.876 21.667 53.8964 19.9668 53.3746 18.7068C52.7715 17.2437 51.6061 16.0515 50.3525 15.049H50.3593Z" fill="#16a34a"/>
</svg>
